<?xml version="1.0" standalone="no"?>
<!DOCTYPE svg PUBLIC "-//W3C//DTD SVG 20010904//EN"
 "http://www.w3.org/TR/2001/REC-SVG-20010904/DTD/svg10.dtd">
<svg version="1.0" xmlns="http://www.w3.org/2000/svg"
 width="500.000000pt" height="500.000000pt" viewBox="0 0 500.000000 500.000000"
 preserveAspectRatio="xMidYMid meet">

<g transform="translate(0.000000,500.000000) scale(0.100000,-0.100000)"
fill="#000000" stroke="none">
<path d="M2177 4858 c-18 -9 -45 -17 -60 -18 -36 0 -115 -35 -147 -65 -32 -29
-98 -57 -105 -44 -13 20 -41 7 -87 -41 -26 -27 -47 -55 -46 -62 2 -6 -16 -22
-38 -35 -41 -23 -118 -104 -145 -153 -44 -79 -39 -658 7 -963 6 -37 6 -37 -21
-27 -36 14 -38 13 -31 -13 11 -44 -3 -66 -39 -65 -36 1 -86 -31 -93 -60 -2 -9
-6 -44 -9 -78 -5 -54 -2 -67 26 -120 25 -48 32 -74 34 -131 1 -39 5 -69 10
-66 4 2 7 -9 7 -26 0 -36 40 -79 99 -105 33 -16 41 -24 41 -46 0 -46 37 -175
68 -237 36 -70 141 -203 207 -261 26 -23 81 -65 121 -94 51 -37 73 -58 70 -70
-2 -9 2 -19 10 -22 8 -3 14 -12 14 -21 0 -8 5 -15 10 -15 6 0 10 -8 10 -18 0
-10 3 -22 8 -26 4 -4 7 -11 8 -14 0 -4 3 -14 7 -22 11 -30 15 -103 6 -126 -6
-17 -5 -24 4 -24 8 0 8 -3 -2 -9 -11 -7 -10 -11 5 -20 11 -6 15 -11 10 -11 -4
0 -26 10 -47 22 -44 24 -74 78 -65 114 3 13 9 36 12 50 l7 26 -34 -18 c-19 -9
-47 -27 -64 -39 -27 -21 -300 -125 -325 -125 -24 0 -160 -63 -204 -94 -114
-81 -232 -269 -276 -440 -12 -43 -27 -90 -34 -105 -19 -38 -92 -288 -121 -416
-54 -240 -53 -358 3 -458 60 -105 140 -142 362 -163 470 -45 1673 -45 2062 0
188 21 205 34 304 221 76 144 154 422 210 745 24 140 24 315 0 395 -25 84 -82
182 -136 235 -64 62 -144 98 -365 165 -104 31 -230 76 -280 100 -49 24 -101
46 -113 50 -22 6 -23 5 -12 -15 18 -34 5 -64 -56 -130 -62 -66 -129 -110 -244
-157 -130 -54 -340 -81 -382 -49 -16 12 -16 14 8 25 14 6 22 16 18 22 -4 8 0
9 15 4 12 -4 21 -2 21 4 0 6 7 11 15 11 8 0 15 4 15 9 0 4 20 16 45 26 25 9
51 22 58 29 6 6 54 38 106 70 186 117 351 273 351 332 0 10 47 65 104 124 87
89 110 120 146 194 26 53 49 120 59 171 16 82 17 84 51 94 19 6 49 23 66 38
16 15 23 23 15 16 -9 -6 -37 -14 -62 -18 l-46 -7 -5 233 c-6 244 3 362 29 392
12 12 13 17 3 17 -9 0 -11 11 -7 38 17 107 39 485 32 567 -4 50 -8 106 -10
126 -1 20 -4 40 -7 45 -3 5 -9 26 -12 48 -9 49 -46 133 -83 188 -16 24 -35 62
-42 86 -9 31 -22 48 -50 66 -21 14 -48 41 -59 61 -14 23 -36 41 -59 51 -21 8
-45 19 -53 24 -48 33 -102 49 -173 53 -69 4 -84 9 -124 37 -44 32 -71 38 -148
31 -11 -1 -34 1 -51 5 -19 3 -42 0 -60 -9 -22 -11 -43 -12 -89 -6 -110 15
-145 15 -178 -3z m583 -571 c30 -9 70 -11 119 -8 79 7 113 -3 138 -39 7 -10
40 -38 73 -61 70 -49 71 -52 100 -249 11 -74 22 -142 25 -150 12 -40 40 -484
40 -630 0 -160 -1 -167 -30 -235 -22 -53 -44 -85 -92 -132 -35 -35 -68 -63
-73 -63 -8 0 -13 17 -25 80 -3 14 -13 30 -22 37 -10 7 -23 17 -30 22 -23 21
-175 44 -243 37 l-67 -6 5 31 c4 30 4 31 -19 18 -74 -40 -235 -45 -295 -10
-32 19 -87 27 -139 19 -17 -3 -21 4 -25 42 l-5 45 -18 -35 c-39 -80 -56 -91
-149 -105 -47 -7 -100 -20 -117 -28 -17 -9 -29 -12 -27 -8 3 3 -4 7 -14 7 -10
0 -17 -3 -14 -7 2 -4 -6 -18 -19 -31 -12 -14 -29 -35 -37 -47 l-15 -22 -7 23
c-5 21 -6 21 -7 -6 l-1 -28 -49 50 c-97 99 -115 204 -96 545 7 127 11 235 9
239 -5 8 33 345 47 415 15 75 74 149 149 188 36 18 69 24 160 30 63 3 164 15
224 26 93 17 119 18 183 9 90 -14 178 -5 258 25 33 12 60 23 60 24 0 0 20 -5
45 -12z m-1235 -998 c9 -17 15 -33 13 -35 -3 -2 -12 12 -21 31 -21 43 -13 47
8 4z m46 -148 c-6 -10 -13 -50 -17 -87 -8 -91 -21 -113 -16 -27 4 63 23 133
37 133 3 0 1 -9 -4 -19z m1195 -479 c-53 -55 -89 -68 -224 -81 -153 -16 -341
6 -363 41 -22 34 -11 36 149 31 115 -3 184 0 257 11 119 19 197 37 209 48 5 4
12 6 14 3 3 -3 -16 -26 -42 -53z m138 39 c5 -1 6 -24 3 -52 -11 -89 -98 -214
-178 -255 -53 -26 -98 -31 -118 -11 -8 8 -56 12 -159 13 -81 1 -162 4 -180 6
-17 3 -30 3 -27 0 3 -3 0 -11 -6 -19 -13 -15 -55 -17 -64 -3 -4 6 -10 8 -14 6
-4 -3 -19 5 -33 17 -15 12 -40 33 -57 47 -17 14 -31 29 -31 35 0 5 -12 21 -25
34 -14 12 -22 27 -19 32 3 5 0 9 -6 9 -6 0 -9 4 -6 9 3 5 -1 21 -9 37 -29 57
-4 55 177 -20 169 -69 247 -84 353 -68 99 16 212 70 284 139 43 40 62 51 81
48 14 -2 29 -4 34 -4z m580 -1604 c12 -9 17 -23 14 -47 -2 -26 -10 -37 -35
-49 -18 -9 -33 -19 -33 -22 0 -3 25 -11 55 -18 110 -25 134 -141 29 -141 l-34
0 20 -20 c26 -26 26 -76 1 -90 -25 -13 -72 -13 -106 0 -25 10 -26 9 -20 -24 5
-27 2 -39 -13 -54 -18 -18 -26 -19 -59 -10 -21 6 -40 13 -43 17 -11 14 -58 28
-105 30 -27 1 -79 11 -115 21 -36 11 -84 22 -108 26 -42 7 -42 7 -36 42 8 43
71 137 136 204 53 54 158 109 255 132 75 18 174 20 197 3z m-1647 -249 c-14
-18 -39 -62 -56 -98 -36 -73 -62 -100 -98 -100 -27 0 -76 44 -87 77 -15 48 37
115 102 132 66 17 76 19 120 20 l43 1 -24 -32z"/>
<path d="M1939 3844 c-82 -25 -140 -73 -176 -145 -31 -60 -44 -129 -25 -129 5
0 19 12 33 26 58 62 162 94 311 94 59 0 118 4 132 10 59 22 55 103 -8 141 -25
15 -50 19 -126 18 -52 0 -116 -7 -141 -15z"/>
<path d="M2635 3847 c-49 -23 -71 -92 -41 -132 12 -17 29 -19 152 -20 181 -2
256 -24 339 -96 l35 -31 0 33 c-1 80 -84 191 -173 230 -66 28 -262 38 -312 16z"/>
<path d="M2035 3611 c-18 -8 -18 -10 10 -21 124 -51 128 -53 151 -105 37 -82
40 -107 32 -257 -6 -97 3 -113 37 -74 38 44 55 118 56 244 0 72 -4 89 -28 134
-24 44 -34 53 -73 65 -25 7 -51 11 -58 8 -7 -3 -11 -1 -8 3 6 11 -94 13 -119
3z"/>
<path d="M1978 3583 c7 -3 16 -2 19 1 4 3 -2 6 -13 5 -11 0 -14 -3 -6 -6z"/>
<path d="M2734 3521 c-37 -17 -94 -75 -94 -96 0 -5 17 7 38 27 63 62 124 73
197 38 50 -24 98 -72 124 -125 16 -32 20 -36 21 -17 1 62 -77 148 -160 177
-55 19 -76 19 -126 -4z"/>
<path d="M1974 3516 c-44 -20 -102 -74 -123 -115 -21 -43 -34 -101 -22 -101 5
0 11 15 15 32 10 49 49 101 103 137 43 29 54 32 105 29 65 -5 120 -39 142 -91
8 -18 15 -26 15 -19 1 21 -25 65 -56 94 -50 48 -117 61 -179 34z"/>
<path d="M2023 3470 c-67 -27 -80 -165 -21 -220 29 -27 96 -27 131 1 47 37 57
129 20 186 -24 36 -85 51 -130 33z m95 -78 c2 -15 -2 -22 -12 -22 -11 0 -16 9
-16 26 0 31 23 28 28 -4z"/>
<path d="M2716 3449 c-20 -24 -26 -41 -26 -80 0 -83 36 -128 103 -129 49 0 73
13 92 50 30 58 11 155 -34 180 -11 5 -40 10 -64 10 -38 0 -49 -5 -71 -31z
m123 -37 c11 -21 -2 -48 -18 -38 -14 9 -15 56 -1 56 5 0 14 -8 19 -18z"/>
<path d="M2202 3340 c0 -19 2 -27 5 -17 2 9 2 25 0 35 -3 9 -5 1 -5 -18z"/>
<path d="M3412 3327 c-29 -30 -75 -134 -68 -153 4 -12 22 -4 81 36 41 28 75
54 75 59 0 5 -7 25 -15 45 -18 42 -42 47 -73 13z"/>
</g>
</svg>
